<?xml version="1.0" encoding="UTF-8" standalone="no"?>
<!-- Created with Inkscape (http://www.inkscape.org/) -->

<svg
   xmlns:dc="http://purl.org/dc/elements/1.1/"
   xmlns:cc="http://creativecommons.org/ns#"
   xmlns:rdf="http://www.w3.org/1999/02/22-rdf-syntax-ns#"
   xmlns:svg="http://www.w3.org/2000/svg"
   xmlns="http://www.w3.org/2000/svg"
   xmlns:sodipodi="http://sodipodi.sourceforge.net/DTD/sodipodi-0.dtd"
   xmlns:inkscape="http://www.inkscape.org/namespaces/inkscape"
   width="210mm"
   height="297mm"
   viewBox="0 0 210 297"
   version="1.1"
   id="svg2703"
   inkscape:version="0.92.4 (5da689c313, 2019-01-14)"
   sodipodi:docname="string_lights.svg">
  <defs
     id="defs2697" />
  <sodipodi:namedview
     id="base"
     pagecolor="#ffffff"
     bordercolor="#666666"
     borderopacity="1.0"
     inkscape:pageopacity="0.0"
     inkscape:pageshadow="2"
     inkscape:zoom="0.24748737"
     inkscape:cx="-55.956608"
     inkscape:cy="917.91039"
     inkscape:document-units="mm"
     inkscape:current-layer="layer1"
     showgrid="false"
     inkscape:window-width="1820"
     inkscape:window-height="1058"
     inkscape:window-x="92"
     inkscape:window-y="-8"
     inkscape:window-maximized="1" />
  <metadata
     id="metadata2700">
    <rdf:RDF>
      <cc:Work
         rdf:about="">
        <dc:format>image/svg+xml</dc:format>
        <dc:type
           rdf:resource="http://purl.org/dc/dcmitype/StillImage" />
        <dc:title></dc:title>
      </cc:Work>
    </rdf:RDF>
  </metadata>
  <g
     inkscape:label="Layer 1"
     inkscape:groupmode="layer"
     id="layer1">
    <path
       style="fill:none;fill-rule:evenodd;stroke:#000000;stroke-width:6.61458349;stroke-linecap:round;stroke-linejoin:bevel;stroke-miterlimit:4;stroke-dasharray:none;stroke-opacity:1"
       d="m -335.64286,79.285714 c 0,0 74.86618,42.095616 116.03869,42.333326 41.00253,0.23673 116.0387,-40.821426 116.0387,-40.821426 0,0 73.771625,38.616636 113.77083,38.175596 39.771582,-0.43853 112.25893,-40.443446 112.25893,-40.443446 0,0 78.24912,38.536286 120.19642,37.419636 39.49151,-1.05127 111.125,-41.199396 111.125,-41.199396 0,0 72.7808,37.032116 111.88095,35.529756 36.93891,-1.41932 102.80953,-41.577386 102.80953,-41.577386"
       id="path3248"
       inkscape:connector-curvature="0"
       sodipodi:nodetypes="cscscscsc" />
    <path
       style="opacity:1;fill:#00ffff;fill-opacity:1;fill-rule:nonzero;stroke:none;stroke-width:6.61458302;stroke-linecap:round;stroke-linejoin:bevel;stroke-miterlimit:4;stroke-dasharray:none;stroke-dashoffset:37;stroke-opacity:1"
       d="m -80.499756,97.858504 c -1.609156,3.646146 -8.132369,4.298736 -8.132369,4.298736 0,0 -3.914254,-5.258974 -2.305098,-8.905116 1.609156,-3.646142 4.486226,-5.907889 8.132368,-4.298733 3.646141,1.609156 3.914255,5.258971 2.305099,8.905113 z"
       id="path3250"
       inkscape:connector-curvature="0"
       sodipodi:nodetypes="scsss" />
    <path
       sodipodi:nodetypes="scsss"
       inkscape:connector-curvature="0"
       id="path3253"
       d="m -46.518723,112.01589 c -1.530543,3.67982 -8.038252,4.47225 -8.038252,4.47225 0,0 -4.026203,-5.17377 -2.495659,-8.85362 1.530544,-3.67982 4.358417,-6.00278 8.038249,-4.47224 3.679834,1.53054 4.026206,5.17376 2.495662,8.85361 z"
       style="opacity:1;fill:#ff00ff;fill-opacity:1;fill-rule:nonzero;stroke:none;stroke-width:6.61458302;stroke-linecap:round;stroke-linejoin:bevel;stroke-miterlimit:4;stroke-dasharray:none;stroke-dashoffset:37;stroke-opacity:1"
       inkscape:transform-center-x="30.764208"
       inkscape:transform-center-y="-12.676239" />
    <path
       inkscape:transform-center-y="-5.5003977"
       inkscape:transform-center-x="32.907676"
       style="opacity:1;fill:#00ffff;fill-opacity:1;fill-rule:nonzero;stroke:none;stroke-width:6.61458302;stroke-linecap:round;stroke-linejoin:bevel;stroke-miterlimit:4;stroke-dasharray:none;stroke-dashoffset:37;stroke-opacity:1"
       d="m -11.081917,122.16352 c -0.70004,3.92346 -6.883221,6.10212 -6.883221,6.10212 0,0 -5.048191,-4.18258 -4.348157,-8.10607 0.700041,-3.92347 2.959743,-6.80214 6.883219,-6.10211 3.923478,0.70004 5.048193,4.18257 4.348159,8.10606 z"
       id="path3255"
       inkscape:connector-curvature="0"
       sodipodi:nodetypes="scsss" />
    <path
       sodipodi:nodetypes="scsss"
       inkscape:connector-curvature="0"
       id="path3257"
       d="m 91.075219,100.5312 c 1.609156,3.64614 8.132369,4.29873 8.132369,4.29873 0,0 3.914252,-5.258969 2.305102,-8.905111 -1.60916,-3.646142 -4.48623,-5.907889 -8.132372,-4.298733 -3.646141,1.609156 -3.914255,5.258971 -2.305099,8.905114 z"
       style="opacity:1;fill:#ff00ff;fill-opacity:1;fill-rule:nonzero;stroke:none;stroke-width:6.61458302;stroke-linecap:round;stroke-linejoin:bevel;stroke-miterlimit:4;stroke-dasharray:none;stroke-dashoffset:37;stroke-opacity:1" />
    <path
       inkscape:transform-center-y="-12.676239"
       inkscape:transform-center-x="-30.764208"
       style="opacity:1;fill:#00ffff;fill-opacity:1;fill-rule:nonzero;stroke:none;stroke-width:6.61458302;stroke-linecap:round;stroke-linejoin:bevel;stroke-miterlimit:4;stroke-dasharray:none;stroke-dashoffset:37;stroke-opacity:1"
       d="m 57.094186,114.68858 c 1.530543,3.67982 8.038252,4.47225 8.038252,4.47225 0,0 4.026203,-5.17377 2.495659,-8.85362 -1.530544,-3.67982 -4.358417,-6.00278 -8.038249,-4.47224 -3.679834,1.53054 -4.026206,5.17376 -2.495662,8.85361 z"
       id="path3259"
       inkscape:connector-curvature="0"
       sodipodi:nodetypes="scsss" />
    <path
       sodipodi:nodetypes="scsss"
       inkscape:connector-curvature="0"
       id="path3261"
       d="m 20.588302,124.0344 c 0.70004,3.92346 6.883221,6.10212 6.883221,6.10212 0,0 5.048191,-4.18258 4.348157,-8.10607 -0.700041,-3.92347 -2.959743,-6.80214 -6.883219,-6.10211 -3.923478,0.70004 -5.048193,4.18257 -4.348159,8.10606 z"
       style="opacity:1;fill:#ff00ff;fill-opacity:1;fill-rule:nonzero;stroke:none;stroke-width:6.61458302;stroke-linecap:round;stroke-linejoin:bevel;stroke-miterlimit:4;stroke-dasharray:none;stroke-dashoffset:37;stroke-opacity:1"
       inkscape:transform-center-x="-32.907676"
       inkscape:transform-center-y="-5.5003977" />
    <path
       sodipodi:nodetypes="scsss"
       inkscape:connector-curvature="0"
       id="path3263"
       d="m 153.08953,99.370409 c -1.60916,3.646141 -8.13237,4.298731 -8.13237,4.298731 0,0 -3.91425,-5.258969 -2.3051,-8.905111 1.60916,-3.646142 4.48623,-5.907889 8.13237,-4.298733 3.64614,1.609156 3.91426,5.258971 2.3051,8.905113 z"
       style="opacity:1;fill:#00ffff;fill-opacity:1;fill-rule:nonzero;stroke:none;stroke-width:6.61458302;stroke-linecap:round;stroke-linejoin:bevel;stroke-miterlimit:4;stroke-dasharray:none;stroke-dashoffset:37;stroke-opacity:1" />
    <path
       inkscape:transform-center-y="-12.676239"
       inkscape:transform-center-x="30.764208"
       style="opacity:1;fill:#ff00ff;fill-opacity:1;fill-rule:nonzero;stroke:none;stroke-width:6.61458302;stroke-linecap:round;stroke-linejoin:bevel;stroke-miterlimit:4;stroke-dasharray:none;stroke-dashoffset:37;stroke-opacity:1"
       d="m 188.20449,112.01589 c -1.53054,3.67982 -8.03825,4.47225 -8.03825,4.47225 0,0 -4.0262,-5.17377 -2.49566,-8.85362 1.53055,-3.67982 4.35842,-6.00278 8.03825,-4.47224 3.67983,1.53054 4.02621,5.17376 2.49566,8.85361 z"
       id="path3265"
       inkscape:connector-curvature="0"
       sodipodi:nodetypes="scsss" />
    <path
       sodipodi:nodetypes="scsss"
       inkscape:connector-curvature="0"
       id="path3267"
       d="m 222.88535,121.02959 c -0.70004,3.92346 -6.88322,6.10212 -6.88322,6.10212 0,0 -5.04819,-4.18258 -4.34816,-8.10607 0.70004,-3.92347 2.95974,-6.80214 6.88322,-6.10211 3.92348,0.70004 5.04819,4.18257 4.34816,8.10606 z"
       style="opacity:1;fill:#00ffff;fill-opacity:1;fill-rule:nonzero;stroke:none;stroke-width:6.61458302;stroke-linecap:round;stroke-linejoin:bevel;stroke-miterlimit:4;stroke-dasharray:none;stroke-dashoffset:37;stroke-opacity:1"
       inkscape:transform-center-x="32.907676"
       inkscape:transform-center-y="-5.5003977" />
    <path
       style="opacity:1;fill:#ff00ff;fill-opacity:1;fill-rule:nonzero;stroke:none;stroke-width:6.61458302;stroke-linecap:round;stroke-linejoin:bevel;stroke-miterlimit:4;stroke-dasharray:none;stroke-dashoffset:37;stroke-opacity:1"
       d="m 322.77462,97.885362 c 1.60916,3.646138 8.13237,4.298728 8.13237,4.298728 0,0 3.91426,-5.258958 2.30511,-8.905104 -1.60916,-3.646142 -4.48623,-5.907889 -8.13238,-4.298733 -3.64614,1.609156 -3.91425,5.258971 -2.3051,8.905109 z"
       id="path3269"
       inkscape:connector-curvature="0"
       sodipodi:nodetypes="scsss" />
    <path
       sodipodi:nodetypes="scsss"
       inkscape:connector-curvature="0"
       id="path3271"
       d="m 289.17157,112.42072 c 1.53054,3.67982 8.03825,4.47225 8.03825,4.47225 0,0 4.02621,-5.17377 2.49566,-8.85362 -1.53054,-3.67982 -4.35841,-6.00278 -8.03825,-4.47224 -3.67983,1.53054 -4.0262,5.17376 -2.49566,8.85361 z"
       style="opacity:1;fill:#00ffff;fill-opacity:1;fill-rule:nonzero;stroke:none;stroke-width:6.61458302;stroke-linecap:round;stroke-linejoin:bevel;stroke-miterlimit:4;stroke-dasharray:none;stroke-dashoffset:37;stroke-opacity:1"
       inkscape:transform-center-x="-30.764208"
       inkscape:transform-center-y="-12.676239" />
    <path
       inkscape:transform-center-y="-5.5003977"
       inkscape:transform-center-x="-32.907676"
       style="opacity:1;fill:#ff00ff;fill-opacity:1;fill-rule:nonzero;stroke:none;stroke-width:6.61458302;stroke-linecap:round;stroke-linejoin:bevel;stroke-miterlimit:4;stroke-dasharray:none;stroke-dashoffset:37;stroke-opacity:1"
       d="m 254.17759,121.38856 c 0.70004,3.92346 6.88322,6.10212 6.88322,6.10212 0,0 5.04819,-4.18258 4.34816,-8.10607 -0.70005,-3.92347 -2.95975,-6.80214 -6.88322,-6.10211 -3.92348,0.70004 -5.0482,4.18257 -4.34816,8.10606 z"
       id="path3273"
       inkscape:connector-curvature="0"
       sodipodi:nodetypes="scsss" />
    <path
       style="opacity:1;fill:#00ffff;fill-opacity:1;fill-rule:nonzero;stroke:none;stroke-width:6.61458302;stroke-linecap:round;stroke-linejoin:bevel;stroke-miterlimit:4;stroke-dasharray:none;stroke-dashoffset:37;stroke-opacity:1"
       d="m 373.07167,91.054933 c -1.60916,3.646141 -8.13237,4.298731 -8.13237,4.298731 0,0 -3.91425,-5.258969 -2.3051,-8.905111 1.60916,-3.646142 4.48623,-5.907889 8.13237,-4.298733 3.64614,1.609156 3.91426,5.258971 2.3051,8.905113 z"
       id="path3275"
       inkscape:connector-curvature="0"
       sodipodi:nodetypes="scsss" />
    <path
       sodipodi:nodetypes="scsss"
       inkscape:connector-curvature="0"
       id="path3277"
       d="m 407.0527,105.21231 c -1.53054,3.67982 -8.03825,4.47225 -8.03825,4.47225 0,0 -4.0262,-5.17377 -2.49566,-8.85362 1.53055,-3.679816 4.35842,-6.002776 8.03825,-4.472236 3.67983,1.53054 4.02621,5.173756 2.49566,8.853606 z"
       style="opacity:1;fill:#ff00ff;fill-opacity:1;fill-rule:nonzero;stroke:none;stroke-width:6.61458302;stroke-linecap:round;stroke-linejoin:bevel;stroke-miterlimit:4;stroke-dasharray:none;stroke-dashoffset:37;stroke-opacity:1"
       inkscape:transform-center-x="30.764208"
       inkscape:transform-center-y="-12.676239" />
    <path
       inkscape:transform-center-y="-5.5003977"
       inkscape:transform-center-x="32.907676"
       style="opacity:1;fill:#00ffff;fill-opacity:1;fill-rule:nonzero;stroke:none;stroke-width:6.61458302;stroke-linecap:round;stroke-linejoin:bevel;stroke-miterlimit:4;stroke-dasharray:none;stroke-dashoffset:37;stroke-opacity:1"
       d="m 442.11153,113.84804 c -0.70004,3.92346 -6.88322,6.10212 -6.88322,6.10212 0,0 -5.04819,-4.18258 -4.34816,-8.10607 0.70004,-3.92347 2.95974,-6.80214 6.88322,-6.10211 3.92348,0.70004 5.04819,4.18257 4.34816,8.10606 z"
       id="path3279"
       inkscape:connector-curvature="0"
       sodipodi:nodetypes="scsss" />
    <path
       sodipodi:nodetypes="scsss"
       inkscape:connector-curvature="0"
       id="path3281"
       d="m 542.75676,90.325838 c 1.60916,3.64614 8.13237,4.29873 8.13237,4.29873 0,0 3.91426,-5.25896 2.30511,-8.905106 -1.60916,-3.646142 -4.48623,-5.907889 -8.13238,-4.298733 -3.64614,1.609156 -3.91425,5.258971 -2.3051,8.905109 z"
       style="opacity:1;fill:#ff00ff;fill-opacity:1;fill-rule:nonzero;stroke:none;stroke-width:6.61458302;stroke-linecap:round;stroke-linejoin:bevel;stroke-miterlimit:4;stroke-dasharray:none;stroke-dashoffset:37;stroke-opacity:1" />
    <path
       inkscape:transform-center-y="-12.676239"
       inkscape:transform-center-x="-30.764208"
       style="opacity:1;fill:#00ffff;fill-opacity:1;fill-rule:nonzero;stroke:none;stroke-width:6.61458302;stroke-linecap:round;stroke-linejoin:bevel;stroke-miterlimit:4;stroke-dasharray:none;stroke-dashoffset:37;stroke-opacity:1"
       d="m 510.28763,104.86119 c 1.53054,3.67982 8.03825,4.47225 8.03825,4.47225 0,0 4.02621,-5.17377 2.49566,-8.85362 -1.53054,-3.679816 -4.35841,-6.002776 -8.03825,-4.472236 -3.67983,1.530536 -4.0262,5.173756 -2.49566,8.853606 z"
       id="path3283"
       inkscape:connector-curvature="0"
       sodipodi:nodetypes="scsss" />
    <path
       sodipodi:nodetypes="scsss"
       inkscape:connector-curvature="0"
       id="path3285"
       d="m 474.53771,114.96296 c 0.70004,3.92346 6.88322,6.10212 6.88322,6.10212 0,0 5.04819,-4.18258 4.34816,-8.10607 -0.70005,-3.92347 -2.95975,-6.80214 -6.88322,-6.10211 -3.92348,0.70004 -5.0482,4.18257 -4.34816,8.10606 z"
       style="opacity:1;fill:#ff00ff;fill-opacity:1;fill-rule:nonzero;stroke:none;stroke-width:6.61458302;stroke-linecap:round;stroke-linejoin:bevel;stroke-miterlimit:4;stroke-dasharray:none;stroke-dashoffset:37;stroke-opacity:1"
       inkscape:transform-center-x="-32.907676"
       inkscape:transform-center-y="-5.5003977" />
    <path
       sodipodi:nodetypes="scsss"
       inkscape:connector-curvature="0"
       id="path3287"
       d="m -307.28547,100.88232 c -1.60916,3.64614 -8.13237,4.29873 -8.13237,4.29873 0,0 -3.91425,-5.258975 -2.3051,-8.905116 1.60916,-3.646142 4.48623,-5.907889 8.13237,-4.298733 3.64614,1.609156 3.91426,5.258971 2.3051,8.905119 z"
       style="opacity:1;fill:#00ffff;fill-opacity:1;fill-rule:nonzero;stroke:none;stroke-width:6.61458302;stroke-linecap:round;stroke-linejoin:bevel;stroke-miterlimit:4;stroke-dasharray:none;stroke-dashoffset:37;stroke-opacity:1" />
    <path
       inkscape:transform-center-y="-12.676239"
       inkscape:transform-center-x="30.764208"
       style="opacity:1;fill:#ff00ff;fill-opacity:1;fill-rule:nonzero;stroke:none;stroke-width:6.61458302;stroke-linecap:round;stroke-linejoin:bevel;stroke-miterlimit:4;stroke-dasharray:none;stroke-dashoffset:37;stroke-opacity:1"
       d="m -272.54849,116.17362 c -1.53054,3.67982 -8.03825,4.47225 -8.03825,4.47225 0,0 -4.0262,-5.17377 -2.49566,-8.85362 1.53055,-3.67982 4.35842,-6.00278 8.03825,-4.47224 3.67983,1.53054 4.02621,5.17376 2.49566,8.85361 z"
       id="path3289"
       inkscape:connector-curvature="0"
       sodipodi:nodetypes="scsss" />
    <path
       sodipodi:nodetypes="scsss"
       inkscape:connector-curvature="0"
       id="path3291"
       d="m -239.00156,125.5653 c -0.70004,3.92346 -6.88322,6.10212 -6.88322,6.10212 0,0 -5.04819,-4.18258 -4.34816,-8.10607 0.70004,-3.92347 2.95974,-6.80214 6.88322,-6.10211 3.92348,0.70004 5.04819,4.18257 4.34816,8.10606 z"
       style="opacity:1;fill:#00ffff;fill-opacity:1;fill-rule:nonzero;stroke:none;stroke-width:6.61458302;stroke-linecap:round;stroke-linejoin:bevel;stroke-miterlimit:4;stroke-dasharray:none;stroke-dashoffset:37;stroke-opacity:1"
       inkscape:transform-center-x="32.907676"
       inkscape:transform-center-y="-5.5003977" />
    <path
       style="opacity:1;fill:#ff00ff;fill-opacity:1;fill-rule:nonzero;stroke:none;stroke-width:6.61458302;stroke-linecap:round;stroke-linejoin:bevel;stroke-miterlimit:4;stroke-dasharray:none;stroke-dashoffset:37;stroke-opacity:1"
       d="m -136.46645,103.93298 c 1.60916,3.64614 8.13237,4.29873 8.13237,4.29873 0,0 3.91426,-5.25896 2.30511,-8.905109 -1.60916,-3.646138 -4.48623,-5.907885 -8.13238,-4.298729 -3.64614,1.609156 -3.91425,5.258968 -2.3051,8.905108 z"
       id="path3293"
       inkscape:connector-curvature="0"
       sodipodi:nodetypes="scsss" />
    <path
       sodipodi:nodetypes="scsss"
       inkscape:connector-curvature="0"
       id="path3295"
       d="m -170.44748,118.09036 c 1.53054,3.67982 8.03825,4.47225 8.03825,4.47225 0,0 4.02621,-5.17377 2.49566,-8.85362 -1.53054,-3.67982 -4.35841,-6.00278 -8.03825,-4.47224 -3.67983,1.53054 -4.0262,5.17376 -2.49566,8.85361 z"
       style="opacity:1;fill:#00ffff;fill-opacity:1;fill-rule:nonzero;stroke:none;stroke-width:6.61458302;stroke-linecap:round;stroke-linejoin:bevel;stroke-miterlimit:4;stroke-dasharray:none;stroke-dashoffset:37;stroke-opacity:1"
       inkscape:transform-center-x="-30.764208"
       inkscape:transform-center-y="-12.676239" />
    <path
       inkscape:transform-center-y="-5.5003977"
       inkscape:transform-center-x="-32.907676"
       style="opacity:1;fill:#ff00ff;fill-opacity:1;fill-rule:nonzero;stroke:none;stroke-width:6.61458302;stroke-linecap:round;stroke-linejoin:bevel;stroke-miterlimit:4;stroke-dasharray:none;stroke-dashoffset:37;stroke-opacity:1"
       d="m -205.44146,127.05821 c 0.70004,3.92346 6.88322,6.10212 6.88322,6.10212 0,0 5.04819,-4.18258 4.34816,-8.10607 -0.70005,-3.92347 -2.95975,-6.80214 -6.88322,-6.10211 -3.92348,0.70004 -5.0482,4.18257 -4.34816,8.10606 z"
       id="path3297"
       inkscape:connector-curvature="0"
       sodipodi:nodetypes="scsss" />
  </g>
</svg>
